<svg height="480pt" viewBox="-8 0 480 480" width="480pt" xmlns="http://www.w3.org/2000/svg"><g fill="#d6d6d4"><path d="m16 128h56v64h-56zm0 0"/><path d="m216 128h56v64h-56zm0 0"/><path d="m264 136h-16v-16c0-57.4375-46.5625-104-104-104s-104 46.5625-104 104v8h-16v-8c0-66.273438 53.726562-120 120-120s120 53.726562 120 120zm0 0"/><path d="m49.144531 268.121094-24-40c-.75-1.246094-1.144531-2.667969-1.144531-4.121094v-32h16v29.785156l22.855469 38.09375zm0 0"/></g><path d="m104 256h80v64h-80zm0 0" fill="#fec9a3"/><path d="m104 256v29.207031c24.726562 14.390625 55.273438 14.390625 80 0v-29.207031zm0 0" fill="#feb784"/><path d="m144 280c-40.925781-.011719-75.242188-30.910156-79.535156-71.609375l-8.464844-80.390625c0-48.601562 39.398438-88 88-88s88 39.398438 88 88l-8.464844 80.390625c-4.292968 40.699219-38.609375 71.597656-79.535156 71.609375zm0 0" fill="#fec9a3"/><path d="m144 40c-48.601562 0-88 39.398438-88 88l1.457031 13.816406 30.542969-45.816406 7.351562 2.105469c31.691407 9.050781 65.378907 8.316406 96.648438-2.105469l38.503906 46.207031 1.496094-14.207031c0-48.601562-39.398438-88-88-88zm0 0" fill="#803a32"/><path d="m200 128-8.464844 80.390625c-3.667968 34.675781-29.375 62.980469-63.535156 69.960937 22.097656 4.5625 45.09375-.441406 63.296875-13.773437s29.917969-33.742187 32.238281-56.1875l6.96875-66.183594-35.097656-42.117187c3.03125 8.992187 4.582031 18.417968 4.59375 27.910156zm0 0" fill="#fec093"/><path d="m144 40c-5.367188.019531-10.722656.53125-16 1.519531 31.433594 5.839844 57.238281 28.257813 67.40625 58.570313l35.097656 42.117187 1.496094-14.207031c0-48.601562-39.398438-88-88-88zm0 0" fill="#733029"/><path d="m288 480v-96c0-35.347656-28.652344-64-64-64h-160c-35.347656 0-64 28.652344-64 64v96" fill="#348fd9"/><path d="m0 480h288v-96c.007812-10.878906-2.769531-21.578125-8.070312-31.078125-87.699219 72.628906-211.824219 102.628906-279.929688 113.558594zm0 0" fill="#3086cd"/><path d="m112 160c0 8.835938-7.164062 16-16 16s-16-7.164062-16-16 7.164062-16 16-16 16 7.164062 16 16zm0 0" fill="#803a32"/><path d="m208 160c0 8.835938-7.164062 16-16 16s-16-7.164062-16-16 7.164062-16 16-16 16 7.164062 16 16zm0 0" fill="#803a32"/><path d="m152 200h-24c-2.773438 0-5.347656-1.433594-6.808594-3.792969-1.457031-2.355469-1.589844-5.300781-.351562-7.78125l16-32 14.320312 7.148438-10.214844 20.425781h11.054688zm0 0" fill="#f7a468"/><path d="m137.375 232h-9.375v-16h9.375c12.359375-.035156 24.207031-4.941406 32.96875-13.65625l11.3125 11.3125c-11.769531 11.703125-27.679688 18.292969-44.28125 18.34375zm0 0" fill="#f7a468"/><path d="m464 344v-48h-27.144531c-2.230469-8.667969-5.671875-16.980469-10.222657-24.6875l19.199219-19.199219-33.945312-33.945312-19.199219 19.199219c-7.707031-4.550782-16.019531-7.992188-24.6875-10.222657v-27.144531h-48v27.144531c-8.667969 2.230469-16.980469 5.671875-24.6875 10.222657l-19.199219-19.199219-33.945312 33.945312 19.199219 19.199219c-4.550782 7.707031-7.992188 16.019531-10.222657 24.6875h-27.144531v48h27.144531c2.230469 8.667969 5.671875 16.980469 10.222657 24.6875l-19.199219 19.199219 33.945312 33.945312 19.199219-19.199219c7.707031 4.550782 16.019531 7.992188 24.6875 10.222657v27.144531h48v-27.144531c8.667969-2.230469 16.980469-5.671875 24.6875-10.222657l19.199219 19.199219 33.945312-33.945312-19.199219-19.199219c4.550782-7.707031 7.992188-16.019531 10.222657-24.6875zm-120 8c-17.671875 0-32-14.328125-32-32s14.328125-32 32-32 32 14.328125 32 32-14.328125 32-32 32zm0 0" fill="#e94f4f"/><path d="m464 344v-48h-27.144531c-2.230469-8.667969-5.671875-16.980469-10.222657-24.6875l19.199219-19.199219-33.945312-33.945312-16 16c-10.257813 20.496093-22.820313 39.761719-37.4375 57.417969 12.335937 6.207031 19.277343 19.648437 17.199219 33.300781-2.082032 13.65625-12.710938 24.421875-26.335938 26.671875-13.628906 2.253906-27.15625-4.515625-33.519531-16.773438-20.839844 17.617188-43.304688 33.210938-67.097657 46.574219l-6.511718 6.511719 33.945312 33.945312 19.199219-19.199218c7.703125 4.554687 16.007813 8 24.671875 10.238281v27.144531h48v-27.144531c8.667969-2.230469 16.980469-5.671875 24.6875-10.222657l19.199219 19.199219 33.945312-33.945312-19.199219-19.199219c4.550782-7.707031 7.992188-16.019531 10.222657-24.6875zm0 0" fill="#de4242"/><path d="m344 392c-39.765625 0-72-32.234375-72-72s32.234375-72 72-72 72 32.234375 72 72c-.042969 39.746094-32.253906 71.957031-72 72zm0-128c-30.929688 0-56 25.070312-56 56s25.070312 56 56 56 56-25.070312 56-56c-.039062-30.910156-25.089844-55.960938-56-56zm0 0" fill="#ba2727"/><path d="m48 408h16v72h-16zm0 0" fill="#2066a1"/><path d="m224 416h16v64h-16zm0 0" fill="#2066a1"/><path d="m136 320h16v160h-16zm0 0" fill="#2066a1"/><path d="m96 368 48-48h-56zm0 0" fill="#62a9e6"/><path d="m144 320 48 48 16-48zm0 0" fill="#62a9e6"/></svg>