<svg height="512" viewBox="0 0 512 512" width="512" xmlns="http://www.w3.org/2000/svg"><path d="m488 112v192c0 48.6-71.63 88-160 88-41.53 0-79.36-8.7-107.8-22.87-32.08-15.98-52.2-38.9-52.2-64.13v-193z" fill="#c7c7c5"/><path d="m488 112v192c0 48.6-71.63 88-160 88-41.53 0-79.36-8.7-107.8-22.87 92.65-45.76 189.56-124.02 242.42-257.13z" fill="#bfbfbd"/><ellipse cx="328" cy="112" fill="#e0e0de" rx="160" ry="88"/><path d="m402.5 160.207-5-15.195c32.8-10.8 50.5-27.469 50.5-37.664h16c0 19.808-24.141 40.558-61.5 52.859z" fill="#c7c7c5"/><path d="m266.164 67.352-4.328-15.407c5.367-1.5 10.961-2.832 16.625-3.945l3.078 15.7c-5.239 1.034-10.422 2.261-15.375 3.652z" fill="#ebebe9"/><path d="m208 107.348h-16c0-18.157 20.359-37.27 53.125-49.875l5.75 14.929c-28.148 10.832-42.875 25.778-42.875 34.946z" fill="#ebebe9"/><g fill="#348fd9"><path d="m320 224h16v16h-16z"/><path d="m352 224h16v16h-16z"/><path d="m288 224h16v16h-16z"/><path d="m320 288h16v16h-16z"/><path d="m352 288h16v16h-16z"/><path d="m288 288h16v16h-16z"/><path d="m320 352h16v16h-16z"/><path d="m352 352h16v16h-16z"/><path d="m288 352h16v16h-16z"/></g><path d="m328 272c72.017 0 132.485-22.5 160-55.557v-40.443c0 43.363-73.273 80-160 80s-160-36.637-160-80v40.443c27.515 33.057 87.983 55.557 160 55.557z" fill="#b0b0ae"/><path d="m328 336c72.017 0 132.485-22.5 160-55.557v-40.443c0 43.363-73.273 80-160 80s-160-36.637-160-80v40.443c27.515 33.057 87.983 55.557 160 55.557z" fill="#b0b0ae"/><path d="m280 232v69.58a192.006 192.006 0 0 1 -90.24 162.82l-37.76 23.6-37.76-23.6a191.9 191.9 0 0 1 -90.24-162.82v-69.58a173.8 173.8 0 0 0 122.91-50.91l5.09-5.09 5.09 5.09a173.86 173.86 0 0 0 122.91 50.91z" fill="#348fd9"/><path d="m280 232v69.58a192.006 192.006 0 0 1 -90.24 162.82l-37.76 23.6-37.76-23.6a192.209 192.209 0 0 1 -42.07-35.61c78.07-49.25 129.85-99.88 164.19-202.36a173.586 173.586 0 0 0 43.64 5.57z" fill="#3086cd"/><path d="m131.2 437.262a159.073 159.073 0 0 1 -75.2-135.676v-40.043a203.708 203.708 0 0 0 96-42.143 203.668 203.668 0 0 0 96 42.148v40.043a159.073 159.073 0 0 1 -75.2 135.676l-20.8 13z" fill="#2d7dbf"/><path d="m144 256h16v16h-16z" fill="#62a9e6"/><path d="m144 400h16v16h-16z" fill="#62a9e6"/><path d="m96 352h16v16h-16z" fill="#62a9e6"/><path d="m80 288h16v16h-16z" fill="#62a9e6"/><path d="m192 352h16v16h-16z" fill="#62a9e6"/><path d="m208 288h16v16h-16z" fill="#62a9e6"/></svg>