<svg height="512" viewBox="0 0 512 512" width="512" xmlns="http://www.w3.org/2000/svg"><path d="m320 208v48.25a77.231 77.231 0 0 1 -42.71 69.1l-21.29 10.65-21.29-10.65a77.26 77.26 0 0 1 -42.71-69.1v-48.25a77.267 77.267 0 0 0 54.63-22.63l9.37-9.37 9.37 9.37a77.2 77.2 0 0 0 46.37 22.18 75.653 75.653 0 0 0 8.26.45z" fill="#348fd9"/><path d="m320 208v48.25a77.231 77.231 0 0 1 -42.71 69.1l-21.29 10.65-21.29-10.65a77.093 77.093 0 0 1 -25.18-20.1c37.83-22.42 73.04-52.94 102.21-97.7a75.653 75.653 0 0 0 8.26.45z" fill="#3086cd"/><g fill="#60d1e0"><path d="m248 128h16v24h-16z"/><path d="m248 360h16v24h-16z"/><path d="m128 248h40v16h-40z"/><path d="m164.001 155.029h15.998v33.941h-15.998z" transform="matrix(.707 -.707 .707 .707 -71.245 172)"/><path d="m163.029 324.001h33.941v15.998h-33.941z" transform="matrix(.707 -.707 .707 .707 -182.039 224.52)"/><path d="m344 248h40v16h-40z"/><path d="m323.029 164.001h33.941v15.998h-33.941z" transform="matrix(.707 -.707 .707 .707 -22.039 290.794)"/><path d="m324.001 315.029h15.998v33.941h-15.998z" transform="matrix(.707 -.707 .707 .707 -137.519 332)"/></g><path d="m248 208h16v16h-16z" fill="#4db7e5"/><path d="m216 248h16v16h-16z" fill="#4db7e5"/><path d="m280 248h16v16h-16z" fill="#4db7e5"/><path d="m248 296h16v16h-16z" fill="#4db7e5"/><path d="m248 72h16v32h-16z" fill="#ffb531"/><path d="m232 96h48v16h-48z" fill="#ffb531"/><path d="m216 24h80v48h-80z" fill="#f35244"/><path d="m240 72h56v-48h-8z" fill="#ea4a3b"/><path d="m248 72h16v8h-16z" fill="#ffa912"/><path d="m248 456h16v32h-16z" fill="#ffb531"/><path d="m232 480h48v16h-48z" fill="#ffb531"/><path d="m216 408h80v48h-80z" fill="#f35244"/><path d="m240 456h56v-48h-8z" fill="#ea4a3b"/><path d="m248 456h16v8h-16z" fill="#ffa912"/><path d="m56 264h16v32h-16z" fill="#ffb531"/><path d="m40 288h48v16h-48z" fill="#ffb531"/><path d="m24 216h80v48h-80z" fill="#f35244"/><path d="m48 264h56v-48h-8z" fill="#ea4a3b"/><path d="m56 264h16v8h-16z" fill="#ffa912"/><path d="m440 264h16v32h-16z" fill="#ffb531"/><path d="m424 288h48v16h-48z" fill="#ffb531"/><path d="m408 216h80v48h-80z" fill="#f35244"/><path d="m432 264h56v-48h-8z" fill="#ea4a3b"/><path d="m440 264h16v8h-16z" fill="#ffa912"/><path d="m392 120h16v32h-16z" fill="#ffb531"/><path d="m376 144h48v16h-48z" fill="#ffb531"/><path d="m360 72h80v48h-80z" fill="#f35244"/><path d="m384 120h56v-48h-8z" fill="#ea4a3b"/><path d="m392 120h16v8h-16z" fill="#ffa912"/><path d="m104 120h16v32h-16z" fill="#ffb531"/><path d="m88 144h48v16h-48z" fill="#ffb531"/><path d="m72 72h80v48h-80z" fill="#f35244"/><path d="m96 120h56v-48h-8z" fill="#ea4a3b"/><path d="m104 120h16v8h-16z" fill="#ffa912"/><path d="m104 408h16v32h-16z" fill="#ffb531"/><path d="m88 432h48v16h-48z" fill="#ffb531"/><path d="m72 360h80v48h-80z" fill="#f35244"/><path d="m96 408h56v-48h-8z" fill="#ea4a3b"/><path d="m104 408h16v8h-16z" fill="#ffa912"/><path d="m392 408h16v32h-16z" fill="#ffb531"/><path d="m376 432h48v16h-48z" fill="#ffb531"/><path d="m360 360h80v48h-80z" fill="#f35244"/><path d="m384 408h56v-48h-8z" fill="#ea4a3b"/><path d="m392 408h16v8h-16z" fill="#ffa912"/></svg>