<svg height="464pt" viewBox="0 -40 464 464" width="464pt" xmlns="http://www.w3.org/2000/svg"><path d="m251.199219 368-19.199219-64h-80l-19.199219 64h-28.800781v16h176v-16zm0 0" fill="#e94f4f"/><path d="m24 0c-13.253906 0-24 10.746094-24 24v232h384v-232c0-13.253906-10.746094-24-24-24zm0 0" fill="#e94f4f"/><path d="m360 0h-32l-256 256h312v-232c0-13.253906-10.746094-24-24-24zm0 0" fill="#de4242"/><path d="m0 256v24c0 13.253906 10.746094 24 24 24h336c13.253906 0 24-10.746094 24-24v-24zm0 0" fill="#f26666"/><g fill="#cf3a3a"><path d="m32 64h320v96h-320zm0 0"/><path d="m32 192h88v64h-88zm0 0"/><path d="m152 192h80v64h-80zm0 0"/><path d="m264 192h88v64h-88zm0 0"/><path d="m32 24h16v16h-16zm0 0"/><path d="m64 24h16v16h-16zm0 0"/><path d="m96 24h16v16h-16zm0 0"/></g><path d="m200 368c0 8.835938 7.164062 16 16 16h176c8.835938 0 16-7.164062 16-16v-16h-208zm0 0" fill="#ffcb73"/><path d="m392 112h-176c-8.835938 0-16 7.164062-16 16v224h208v-224c0-8.835938-7.164062-16-16-16zm0 0" fill="#ffb531"/><path d="m392 112-192 192v48h208v-224c0-8.835938-7.164062-16-16-16zm0 0" fill="#ffa912"/><path d="m232 136h24v16h-24zm0 0" fill="#f58f00"/><path d="m272 136h24v16h-24zm0 0" fill="#f58f00"/><path d="m312 136h24v16h-24zm0 0" fill="#f58f00"/><path d="m352 136h24v16h-24zm0 0" fill="#f58f00"/><path d="m232 176h144v56h-144zm0 0" fill="#f58f00"/><path d="m232 264h144v56h-144zm0 0" fill="#f58f00"/><path d="m352 368c0 8.835938 7.164062 16 16 16h80c8.835938 0 16-7.164062 16-16v-16h-112zm0 0" fill="#62a9e6"/><path d="m448 192h-80c-8.835938 0-16 7.164062-16 16v144h112v-144c0-8.835938-7.164062-16-16-16zm0 0" fill="#348fd9"/><path d="m352 324v28h112v-140zm0 0" fill="#3086cd"/><path d="m376 216h64v48h-64zm0 0" fill="#1c75bd"/><path d="m376 280h64v48h-64zm0 0" fill="#1c75bd"/></svg>