<svg height="472pt" viewBox="-4 0 472 472" width="472pt" xmlns="http://www.w3.org/2000/svg"><path d="m309.097656 456-29.058594-80h-80l-29.128906 80h-34.910156v16h208v-16zm0 0" fill="#e0e0de"/><path d="m440 96c0-17.671875-14.328125-32-32-32h-336c-17.671875 0-32 14.328125-32 32v224h400zm0 0" fill="#5ac6d4"/><path d="m440 320h-400v24c0 17.671875 14.328125 32 32 32h336c17.671875 0 32-14.328125 32-32zm0 0" fill="#e0e0de"/><path d="m285.847656 392-5.808594-16h-80l-5.824218 16zm0 0" fill="#d6d6d4"/><path d="m81.382812 169.910156 30.617188 22.089844 30.617188-22.089844 37.261718-6.03125 6.03125-37.261718 22.089844-30.617188-22.089844-30.617188-.222656-1.382812h-113.6875c-17.671875 0-32 14.328125-32 32v42.398438l4.121094 25.457031zm0 0" fill="#3fb7c7"/><path d="m72 248 31.183594-62.359375-21.800782-15.730469-28.070312-4.542968-13.3125 26.632812v32h16zm0 0" fill="#3fb7c7"/><path d="m408 64h-24l-256 256h312v-224c0-17.671875-14.328125-32-32-32zm0 0" fill="#52becc"/><path d="m320 88h16v16h-16zm0 0" fill="#2a8ebd"/><path d="m352 88h16v16h-16zm0 0" fill="#2a8ebd"/><path d="m384 88h16v16h-16zm0 0" fill="#2a8ebd"/><path d="m160 120h240v16h-240zm0 0" fill="#2a8ebd"/><path d="m104 160h256v64h-256zm0 0" fill="#e0e0de"/><path d="m142.617188 169.910156-21.800782 15.730469 31.183594 62.359375 16-24h32l-29.3125-58.632812zm0 0" fill="#3fb7c7"/><path d="m142.617188 169.910156-21.800782 15.730469 19.183594 38.359375h60l-29.3125-58.632812zm0 0" fill="#d6d6d4"/><path d="m104 160h256v16h-256zm0 0" fill="#d6d6d4"/><g fill="#2a8ebd"><path d="m192 184h16v16h-16zm0 0"/><path d="m224 184h16v16h-16zm0 0"/><path d="m96 248h16v16h-16zm0 0"/><path d="m160 248h208v16h-208zm0 0"/><path d="m96 280h184v16h-184zm0 0"/></g><path d="m96 0 30.617188 22.089844 37.261718 6.03125 6.03125 37.261718 22.089844 30.617188-22.089844 30.617188-6.03125 37.261718-37.261718 6.03125-30.617188 22.089844-30.617188-22.089844-37.261718-6.03125-6.03125-37.261718-22.089844-30.617188 22.089844-30.617188 6.03125-37.261718 37.261718-6.03125zm0 0" fill="#ffb531"/><path d="m144 96c0 26.507812-21.492188 48-48 48s-48-21.492188-48-48 21.492188-48 48-48 48 21.492188 48 48zm0 0" fill="#f58f00"/><path d="m126.617188 169.910156-21.800782 15.730469 31.183594 62.359375 16-24h32l-29.3125-58.632812zm0 0" fill="#e94f4f"/><path d="m37.3125 165.367188-29.3125 58.632812h32l16 24 31.183594-62.359375-21.800782-15.730469zm0 0" fill="#e94f4f"/><path d="m88 72h16v48h-16zm0 0" fill="#e66000"/><path d="m459.03125 435.03125-67.03125-67.03125-24 24 67.03125 67.03125c6.628906 6.628906 17.375 6.628906 24 0 6.628906-6.625 6.628906-17.371094 0-24zm0 0" fill="#f7a116"/><path d="m416 320c0 57.4375-46.5625 104-104 104s-104-46.5625-104-104 46.5625-104 104-104 104 46.5625 104 104zm0 0" fill="#ffb531"/><path d="m384 320c0 39.765625-32.234375 72-72 72s-72-32.234375-72-72 32.234375-72 72-72 72 32.234375 72 72zm0 0" fill="#52becc"/><path d="m360 320c0 26.507812-21.492188 48-48 48s-48-21.492188-48-48 21.492188-48 48-48 48 21.492188 48 48zm0 0" fill="#5ac6d4"/><path d="m280 320h-16c.027344-26.5 21.5-47.972656 48-48v16c-17.671875 0-32 14.328125-32 32zm0 0" fill="#9fe4ed"/></svg>