<svg id="Layer_1" xmlns="http://www.w3.org/2000/svg" viewBox="0 0 300 46.3"><path fill="#4390ce" d="M18.6 14c1.8 1 3.2 2.4 4.2 4.2 1 1.8 1.5 3.8 1.5 6s-.5 4.2-1.4 6c-.9 1.8-2.2 3.2-3.9 4.2-1.6 1-3.5 1.5-5.5 1.5-1.6 0-3.2-.3-4.6-1-1.4-.7-2.6-1.6-3.6-2.8v11.4c0 .6-.2 1.2-.6 1.6-.4.4-.9.6-1.6.6-.6 0-1.1-.2-1.5-.6-.4-.4-.6-.9-.6-1.6V24.2c0-2.2.5-4.2 1.5-6C3.6 16.5 5 15 6.7 14c1.8-1 3.7-1.5 5.9-1.5s4.2.5 6 1.5zm-2.1 17.1c1.1-.7 2-1.6 2.7-2.8.7-1.2 1-2.5 1-4s-.3-2.8-1-4.1c-.7-1.2-1.6-2.2-2.7-2.9-1.1-.7-2.4-1-3.8-1s-2.7.3-3.8 1c-1.1.7-2 1.6-2.7 2.9-.6 1.2-1 2.6-1 4.1 0 1.5.3 2.8 1 4 .6 1.2 1.5 2.1 2.7 2.8s2.4 1 3.8 1c1.3 0 2.6-.3 3.8-1z"/><path  fill="#4390ce" d="M47.5 14c1.8 1 3.2 2.4 4.2 4.2 1 1.8 1.5 3.8 1.5 6v9.4c0 .6-.2 1.1-.6 1.5-.4.4-.9.6-1.5.6s-1.1-.2-1.5-.6c-.4-.4-.6-.9-.6-1.5V32c-1 1.2-2.2 2.2-3.6 2.8-1.4.7-2.9 1-4.6 1-2 0-3.9-.5-5.5-1.5s-2.9-2.4-3.9-4.2c-.9-1.8-1.4-3.8-1.4-6s.5-4.2 1.5-6c1-1.8 2.4-3.2 4.2-4.2 1.8-1 3.8-1.5 5.9-1.5 2.2.1 4.2.6 5.9 1.6zm-2 17.1c1.1-.7 2-1.6 2.7-2.8.6-1.2 1-2.5 1-4s-.3-2.8-1-4.1c-.6-1.2-1.5-2.2-2.7-2.9-1.1-.7-2.4-1-3.8-1s-2.7.3-3.8 1c-1.1.7-2 1.6-2.7 2.9-.7 1.2-1 2.6-1 4.1 0 1.5.3 2.8 1 4 .7 1.2 1.6 2.1 2.7 2.8s2.4 1 3.8 1 2.6-.3 3.8-1z"/><path  fill="#4390ce" d="M75.9 25.6c.9 1 1.3 2.1 1.3 3.4 0 1.3-.4 2.5-1.2 3.6-.8 1.1-1.9 2-3.3 2.6-1.4.6-3 .9-4.7.9-1.9 0-3.7-.3-5.3-.9a14 14 0 0 1-4-2.3c-.5-.5-.7-.9-.7-1.5s.2-1 .7-1.4c.4-.3.8-.4 1.4-.4.7 0 1.3.2 1.7.6 1.6 1.4 3.6 2.1 6 2.1 1.5 0 2.7-.3 3.7-1 .9-.7 1.4-1.5 1.4-2.6 0-.9-.3-1.6-1-2.2-.7-.6-1.5-.9-2.5-.9H67c-.6 0-1.1-.2-1.6-.5-.4-.3-.6-.7-.6-1.2s.2-.9.6-1.2c.4-.3.9-.5 1.6-.5h2.4c.9 0 1.6-.3 2.1-.9.5-.6.7-1.3.7-2.2 0-.9-.4-1.7-1.2-2.2-.8-.5-1.9-.8-3.4-.8-1.2 0-2.3.2-3.3.5s-1.8.8-2.5 1.5c-.5.5-1 .7-1.6.7-.5 0-1-.2-1.4-.5-.3-.2-.5-.6-.5-1.1 0-.6.2-1.2.7-1.6.9-1 2.2-1.8 3.7-2.4 1.5-.6 3.1-.9 4.7-.9 1.7 0 3.2.3 4.5.9 1.3.6 2.4 1.4 3.2 2.4.8 1 1.1 2.1 1.1 3.3s-.4 2.2-1.1 3.1c-.8.9-1.7 1.4-3 1.7 1.7.3 2.9.9 3.8 1.9z"/><path  fill="#4390ce" d="M99.7 15.5c1.6.9 2.8 2.2 3.7 3.8.9 1.6 1.3 3.5 1.3 5.6s-.5 4-1.4 5.6c-1 1.6-2.3 2.9-4 3.9-1.7.9-3.6 1.4-5.8 1.4-2.2 0-4.2-.5-6-1.4-1.8-.9-3.1-2.2-4.1-3.9-1-1.6-1.5-3.5-1.5-5.6v-4.8c0-3.4 1-6.5 2.8-9.3 1.9-2.7 4.7-4.9 8.4-6.6L101 .7c.4-.1.7-.2.9-.2.4 0 .7.1 1 .3.3.2.5.5.6.8.1.4.2.7.2 1 0 .6-.4 1.2-1.3 1.6l-8.6 3.9c-5.2 2.4-8.1 6.1-8.6 11 .9-1.6 2.1-2.9 3.7-3.8 1.6-.9 3.4-1.4 5.4-1.4 2 .3 3.8.7 5.4 1.6zm-1.1 14.6c1.3-1.3 2-3 2-5.1 0-2.1-.7-3.8-2-5.1-1.3-1.3-3-2-5.1-2-1.4 0-2.7.3-3.9.9-1.1.6-2 1.4-2.7 2.5-.6 1.1-1 2.3-1 3.6 0 1.4.3 2.6 1 3.7s1.5 1.9 2.7 2.5c1.1.6 2.4.9 3.9.9 2.1.1 3.8-.5 5.1-1.9z"/><path fill="#4390ce" d="M132.2 13.2c.4.4.6.9.6 1.6v18.9c0 .6-.2 1.1-.6 1.5-.4.4-.9.6-1.6.6-.6 0-1.1-.2-1.5-.6-.4-.4-.6-.9-.6-1.5v-.5c-.9.9-2 1.6-3.2 2.1-1.2.5-2.6.7-4 .7-1.9 0-3.7-.4-5.2-1.3-1.6-.8-2.8-2.1-3.6-3.7-.9-1.6-1.3-3.6-1.3-5.9V14.8c0-.6.2-1.1.6-1.5.4-.4.9-.6 1.5-.6s1.1.2 1.5.6c.4.4.6.9.6 1.5v10.4c0 2.3.6 4 1.8 5.2 1.2 1.2 2.9 1.8 4.9 1.8 1.2 0 2.3-.2 3.2-.7 1-.5 1.7-1.1 2.3-1.9s.8-1.7.8-2.7V14.8c0-.6.2-1.2.6-1.6.4-.4.9-.6 1.5-.6.8 0 1.3.2 1.7.6z"/><path  fill="#4390ce" d="M158.4 14c1.8 1 3.2 2.4 4.2 4.2 1 1.8 1.5 3.8 1.5 6s-.5 4.2-1.4 6c-.9 1.8-2.2 3.2-3.9 4.2-1.6 1-3.5 1.5-5.5 1.5-1.6 0-3.2-.3-4.6-1-1.4-.7-2.6-1.6-3.6-2.8v11.4c0 .6-.2 1.2-.6 1.6-.4.4-.9.6-1.6.6-.6 0-1.1-.2-1.5-.6-.4-.4-.6-.9-.6-1.6V24.2c0-2.2.5-4.2 1.5-6 1-1.8 2.4-3.2 4.2-4.2 1.8-1 3.7-1.5 5.9-1.5 2.3 0 4.2.5 6 1.5zm-2.1 17.1c1.1-.7 2-1.6 2.7-2.8.7-1.2 1-2.5 1-4s-.3-2.8-1-4.1c-.7-1.2-1.6-2.2-2.7-2.9-1.1-.7-2.4-1-3.8-1s-2.7.3-3.8 1c-1.1.7-2 1.6-2.7 2.9-.6 1.2-1 2.6-1 4.1 0 1.5.3 2.8 1 4 .6 1.2 1.5 2.1 2.7 2.8 1.1.7 2.4 1 3.8 1s2.7-.3 3.8-1z"/><path  fill="#4390ce" d="M187.4 14c1.8 1 3.2 2.4 4.2 4.2 1 1.8 1.5 3.8 1.5 6v9.4c0 .6-.2 1.1-.6 1.5-.4.4-.9.6-1.5.6s-1.1-.2-1.5-.6c-.4-.4-.6-.9-.6-1.5V32c-1 1.2-2.2 2.2-3.6 2.8-1.4.7-2.9 1-4.6 1-2 0-3.9-.5-5.5-1.5s-2.9-2.4-3.9-4.2c-.9-1.8-1.4-3.8-1.4-6s.5-4.2 1.5-6c1-1.8 2.4-3.2 4.2-4.2 1.8-1 3.8-1.5 5.9-1.5 2.2.1 4.1.6 5.9 1.6zm-2.1 17.1c1.1-.7 2-1.6 2.7-2.8.6-1.2 1-2.5 1-4s-.3-2.8-1-4.1c-.6-1.2-1.5-2.2-2.7-2.9-1.1-.7-2.4-1-3.8-1s-2.7.3-3.8 1c-1.1.7-2 1.6-2.7 2.9-.7 1.2-1 2.6-1 4.1 0 1.5.3 2.8 1 4 .7 1.2 1.6 2.1 2.7 2.8s2.4 1 3.8 1 2.7-.3 3.8-1z"/><path  fill="#4390ce" d="M230.3 14.8c1.5 1.6 2.3 3.8 2.3 6.7v12.1c0 .6-.2 1.1-.6 1.5-.4.4-.9.6-1.6.6-.6 0-1.1-.2-1.5-.6-.4-.4-.6-.9-.6-1.5v-12c0-1.7-.4-3-1.3-3.9-.9-.9-2-1.3-3.4-1.3-1.5 0-2.7.5-3.6 1.5-.9 1-1.4 2.3-1.4 3.9v11.9c0 .6-.2 1.1-.6 1.5-.4.4-.9.6-1.6.6-.6 0-1.1-.2-1.5-.6-.4-.4-.6-.9-.6-1.5V21.6c0-1.7-.4-3-1.3-3.9-.9-.9-2-1.3-3.4-1.3-1.5 0-2.7.5-3.7 1.5-.9 1-1.4 2.3-1.4 3.9v11.9c0 .6-.2 1.1-.6 1.5-.4.4-.9.6-1.6.6-.6 0-1.1-.2-1.5-.6-.4-.4-.6-.9-.6-1.5V14.8c0-.6.2-1.2.6-1.6.4-.4.9-.6 1.5-.6s1.1.2 1.5.6c.4.4.6.9.6 1.5.7-.7 1.6-1.3 2.6-1.7 1-.4 2.1-.6 3.3-.6 1.4 0 2.7.3 3.9.9 1.1.6 2.1 1.4 2.8 2.5.8-1 1.9-1.9 3.2-2.5 1.3-.6 2.7-.9 4.2-.9 2.4 0 4.3.8 5.9 2.4z"/><path  fill="#4390ce" d="M256.6 14c1.8 1 3.1 2.4 4.1 4.2 1 1.8 1.5 3.8 1.5 6.1s-.5 4.3-1.5 6c-1 1.8-2.4 3.2-4.1 4.2-1.8 1-3.8 1.5-6 1.5-2.3 0-4.3-.5-6-1.5-1.8-1-3.2-2.4-4.1-4.2-1-1.8-1.5-3.8-1.5-6 0-2.3.5-4.3 1.5-6.1 1-1.8 2.4-3.2 4.1-4.2 1.8-1 3.8-1.5 6-1.5s4.2.5 6 1.5zm-9.9 3.3c-1.1.7-2 1.6-2.7 2.8-.6 1.2-1 2.6-1 4.1 0 1.5.3 2.9 1 4.1.6 1.2 1.5 2.1 2.7 2.8 1.1.7 2.4 1 3.9 1 1.4 0 2.7-.3 3.9-1 1.1-.7 2-1.6 2.7-2.8.6-1.2 1-2.6 1-4.1 0-1.5-.3-2.9-1-4.1-.6-1.2-1.5-2.2-2.7-2.8-1.1-.7-2.4-1-3.9-1s-2.8.3-3.9 1z"/><path fill="#4390ce" d="M286.6 14c1.8 1 3.2 2.4 4.2 4.2 1 1.8 1.5 3.8 1.5 6s-.5 4.2-1.4 6c-.9 1.8-2.2 3.2-3.9 4.2-1.6 1-3.5 1.5-5.5 1.5-1.6 0-3.2-.3-4.6-1-1.4-.7-2.6-1.6-3.6-2.8v11.4c0 .6-.2 1.2-.6 1.6-.4.4-.9.6-1.6.6-.6 0-1.1-.2-1.5-.6-.4-.4-.6-.9-.6-1.6V24.2c0-2.2.5-4.2 1.5-6 1-1.8 2.4-3.2 4.2-4.2 1.8-1 3.7-1.5 5.9-1.5 2.3 0 4.2.5 6 1.5zm-2.1 17.1c1.1-.7 2-1.6 2.7-2.8.7-1.2 1-2.5 1-4s-.3-2.8-1-4.1c-.7-1.2-1.6-2.2-2.7-2.9-1.1-.7-2.4-1-3.8-1s-2.7.3-3.8 1c-1.1.7-2 1.6-2.7 2.9-.6 1.2-1 2.6-1 4.1 0 1.5.3 2.8 1 4 .6 1.2 1.5 2.1 2.7 2.8 1.1.7 2.4 1 3.8 1s2.7-.3 3.8-1z"/></svg>